<svg version="1.2" xmlns="http://www.w3.org/2000/svg" viewBox="0 0 1280 720" width="230" height="129"><style>.a{fill:#e6889a}.b{fill:#fff}</style><path class="a" d="m0 0h1280v720h-1280z"/><path class="b" d="m168.2 436h-87.5v-1.8l3.8-1.4q3.8-1.5 4.7-3.5 1.1-2.1 1.1-5.7v-94q0-3.6-1.1-5.7-1.1-2.2-4.7-3.5l-3.8-1.4v-1.8h45.9v1.8l-3.2 1.4q-3.4 1.3-4.7 3.6-1.2 2.2-1.2 5.8v102.6h27.7q6.6 0 9.7-3.2 3.2-3.3 6.1-9.4l7-15.1h1.8zm35.7 2.7q-10.5 0-17.7-6-7-5.9-7-17.1 0-8.4 8.7-15.4 8.6-7.2 27.1-10.8 2.9-0.6 6.5-1.1 3.6-0.7 7.6-1.5v-14.2q0-12.2-3.1-17.1-2.9-5-9.2-5-4.3 0-6.8 2.9-2.5 2.7-3.2 9.5l-0.4 2q-0.4 7.7-3.8 11.3-3.4 3.6-8.4 3.6-4.7 0-7.8-2.9-3-2.8-3-7.7 0-7.4 5-12.4 5.2-5.1 13.7-7.6 8.4-2.5 18.3-2.5 16.1 0 24.7 7.9 8.8 7.8 8.8 25.4v39.8q0 8.1 7.6 8.1h3.9l1.7 1.4q-3.5 4.3-7.6 6.7-4 2.3-11.3 2.3-8 0-12.6-3.6-4.5-3.8-6-9.9-5.4 5.8-11.1 9.9-5.6 4-14.6 4zm11-11q3.6 0 6.6-1.6 3.3-1.8 7.6-5.4v-30.3q-1.8 0.4-3.6 0.8-1.8 0.3-4.2 0.7-8.2 2.1-13.3 7.4-4.8 5-4.8 13.6 0 7.4 3.4 11.2 3.4 3.6 8.3 3.6zm87.1 11q-7 0-13-2.7-5.7-2.7-9.2-8.7-3.2-6.1-3-16l0.5-46.2q0-4.2-1.4-6-1.5-1.8-4.5-2.5l-2.2-0.7v-1.8l32.2-6.3 1.8 1.8-0.9 25.5v43.4q0 5.8 3.3 8.5 3.4 2.7 8.4 2.7 5.1 0 9-1.5 4-1.4 8-4.3l0.7-58.7q0-4.1-1.3-5.7-1.2-1.8-4.7-2.5l-1.8-0.6v-1.8l31.5-6.8 1.8 1.8-0.5 25.5v48.8q0 4 1.1 6.1 1.1 2.2 4.7 3.6l1.8 0.6v1.8l-31.5 1.8-1.7-10.6q-5.9 4.8-12.9 8.2-6.9 3.3-16.2 3.3zm116.1-2.7h-46.6v-1.8l2.7-0.7q3.6-1.1 4.8-3.3 1.5-2.1 1.5-5.6v-56.3q0-4-1.5-5.8-1.2-1.9-4.8-2.7l-2.7-0.7v-1.8l30.9-10.4 1.8 1.8 1.6 15.5v1.4q2.6-5 6.5-9.2 4.2-4.3 9-7 5.1-2.7 9.9-2.7 6.9 0 10.5 3.8 3.6 3.8 3.6 9.5 0 6.1-3.6 9.6-3.5 3.2-8.3 3.2-7.6 0-13.3-7.6l-0.4-0.3q-1.8-2.5-4.1-2.7-2.4-0.4-4.4 2.1-1.8 1.7-3 4-1.1 2.2-2.2 5v50.3q0 7.2 6.3 9l5.8 1.6zm55.2 2.7q-10.4 0-17.6-6-7-5.9-7-17.1 0-8.4 8.6-15.4 8.7-7.2 27.2-10.8 2.9-0.6 6.5-1.1 3.6-0.7 7.5-1.5v-14.2q0-12.2-3-17.1-2.9-5-9.2-5-4.3 0-6.8 2.9-2.6 2.7-3.3 9.5l-0.3 2q-0.4 7.7-3.8 11.3-3.4 3.6-8.5 3.6-4.7 0-7.7-2.9-3.1-2.8-3.1-7.7 0-7.4 5.1-12.4 5.2-5.1 13.6-7.6 8.5-2.5 18.4-2.5 16 0 24.7 7.9 8.8 7.8 8.8 25.4v39.8q0 8.1 7.5 8.1h4l1.6 1.4q-3.4 4.3-7.5 6.7-4 2.3-11.4 2.3-7.9 0-12.6-3.6-4.5-3.8-5.9-9.9-5.4 5.8-11.2 9.9-5.6 4-14.6 4zm11-11q3.6 0 6.7-1.6 3.2-1.8 7.5-5.4v-30.3q-1.8 0.4-3.6 0.8-1.8 0.3-4.1 0.7-8.3 2.1-13.3 7.4-4.9 5-4.9 13.6 0 7.4 3.4 11.2 3.5 3.6 8.3 3.6zm119 8.3h-23.8v-1.8l3.6-1.3q6.2-2 6.2-10.2v-92.2q0-3.6-0.9-5.8-0.8-2.1-4.2-3.6l-4.7-2.1v-1.8h34.8l33.3 87.1 31.3-87.1h35.5v1.8l-2.9 1.1q-3.4 1.2-4.7 3.6-1.3 2.1-1.3 5.7v94.2q0 3.6 0.9 5.5 0.9 2 4.4 3.5l3.6 1.6v1.8h-44.9v-1.8l3.8-1.6q3.4-1.5 4.3-3.5 0.9-1.9 0.9-5.5v-40.5l0.4-51.5-37.6 104.4h-9l-39.3-103.2 0.6 44.9v45.3q0 4 1.1 6.5 1.2 2.3 4.6 3.4l4 1.3zm159.5 2.7q-13.7 0-23.8-5.6-10.1-5.8-15.6-16.2-5.4-10.4-5.4-24.5 0-14 5.7-24.3 6-10.2 16-15.8 10.3-5.6 23.1-5.6 12.8 0 22.8 5.6 10.1 5.4 15.9 15.6 5.9 10.3 5.9 24.5 0 14.2-5.6 24.7-5.4 10.2-15.4 16-9.9 5.6-23.6 5.6zm0-3.6q6.3 0 10.1-3.6 3.7-3.6 5.4-12.8 1.8-9.2 1.8-25.9 0-16.9-1.8-26.1-1.7-9.2-5.4-12.8-3.8-3.6-10.1-3.6-6.3 0-10.3 3.6-3.8 3.6-5.6 12.8-1.6 9.2-1.6 26.1 0 16.7 1.6 25.9 1.8 9.2 5.6 12.8 4 3.6 10.3 3.6zm91.8 3.6q-10.6 0-19.1-4.7-8.5-4.9-13.5-14.8-4.9-10-4.9-25.7 0-15.8 5.6-26.1 5.6-10.4 14.8-15.5 9.2-5.2 20-5.2 6.3 0 12 1.3 5.8 1.2 10.3 3.7v-23.4q0-3.7-1.3-5.5-1.1-1.8-4.8-2.6l-3.5-0.7v-1.8l32.8-7.9 2 1.6-0.7 25.2v88q0 3.6 1.2 6 1.3 2.1 4.7 3l1.6 0.6v1.8l-30.8 2-1.6-6.5q-4.8 3.2-11.1 5.2-6.2 2-13.7 2zm10.4-6.7q7.6 0 13.9-4.5v-71.4q-6.7-4.4-13.7-4.4-8.6 0-14.8 10.1-6.1 9.9-6.1 31.3 0 21.5 5.8 30.3 5.7 8.6 14.9 8.6zm76.3-94.7q-6.1 0-10.4-3.7-4.1-4-4.1-9.9 0-6.2 4.1-9.9 4.3-3.8 10.4-3.8 6.2 0 10.3 3.8 4.1 3.7 4.1 9.9 0 5.9-4.1 9.9-4.1 3.7-10.3 3.7zm20.9 98.7h-42.1v-1.8l2.5-0.7q3.6-1.1 4.9-3.3 1.4-2.1 1.4-5.7v-56.4q0-3.8-1.4-5.6-1.3-1.9-4.9-2.7l-2.5-0.5v-1.8l32.9-10.6 1.8 1.8-0.5 25.5v50.4q0 3.6 1.3 5.8 1.4 2.2 4.8 3.2l1.8 0.6zm39.1 2.7q-8.8 0-15.9-2-7-2.2-12.9-5.2l0.2-21.4h1.8l6.1 10.8q3.9 7.2 8.6 10.8 4.9 3.4 12.3 3.4 8.6 0 13.8-3.8 5.4-4 5.4-10.4 0-6-3.8-9.8-3.7-3.7-14-6.8l-7.6-2.3q-10.9-3.3-17.2-10.1-6.3-6.9-6.3-16.8 0-11.8 9.3-20.1 9.4-8.3 26.8-8.3 7.1 0 13.2 1.6 6.3 1.5 12 4.5l-1 19.5h-1.8l-6.3-11.2q-3.5-5.9-6.9-8.3-3.2-2.5-9.9-2.5-6.1 0-11.5 3.4-5.4 3.4-5.4 9.7 0 6.2 4.5 9.8 4.7 3.6 13.7 6.6l8.1 2.4q12.9 3.9 18.5 10.9 5.6 6.9 5.6 16.6 0 13.1-10.4 21.1-10.3 7.9-29 7.9zm81.5 0q-11.5 0-18-5.8-6.3-5.7-6.3-18.3v-61.6h-12.4v-1.8l4.3-0.7q5.6-1.3 9.6-3.6 4.1-2.4 8.1-6.3l14.7-16.4h1.8l-0.5 25.2h20.1v3.6h-20.3v64.8q0 6.3 2.7 9.5 2.9 3.3 7.2 3.3 3.8 0 6.7-1.8 2.8-2 5.7-5.2l1.8 1.8q-3.6 6.1-9.9 9.7-6.3 3.6-15.3 3.6zm57.1 0q-10.5 0-17.7-6-7-5.9-7-17.1 0-8.4 8.7-15.4 8.6-7.2 27.1-10.8 2.9-0.6 6.5-1.1 3.6-0.7 7.6-1.5v-14.2q0-12.2-3.1-17.1-2.9-5-9.2-5-4.3 0-6.8 2.9-2.5 2.7-3.2 9.5l-0.4 2q-0.4 7.7-3.8 11.3-3.4 3.6-8.4 3.6-4.7 0-7.8-2.9-3-2.8-3-7.7 0-7.4 5-12.4 5.2-5.1 13.7-7.6 8.4-2.5 18.3-2.5 16.1 0 24.7 7.9 8.8 7.8 8.8 25.4v39.8q0 8.1 7.6 8.1h3.9l1.7 1.4q-3.5 4.3-7.6 6.7-4 2.3-11.3 2.3-8 0-12.6-3.6-4.5-3.8-6-9.9-5.4 5.8-11.1 9.9-5.6 4-14.6 4zm11-11q3.6 0 6.6-1.6 3.3-1.8 7.6-5.4v-30.3q-1.8 0.4-3.6 0.8-1.8 0.3-4.2 0.7-8.2 2.1-13.3 7.4-4.8 5-4.8 13.6 0 7.4 3.4 11.2 3.4 3.6 8.3 3.6z"/></svg>